<svg id="visual" viewBox="0 0 900 600" width="900" height="600" xmlns="http://www.w3.org/2000/svg" xmlns:xlink="http://www.w3.org/1999/xlink" version="1.1"><rect x="0" y="0" width="900" height="600" fill="#DBD8C1"></rect><defs><linearGradient id="grad1_0" x1="33.3%" y1="0%" x2="100%" y2="100%"><stop offset="20%" stop-color="#dbd8c1" stop-opacity="1"></stop><stop offset="80%" stop-color="#dbd8c1" stop-opacity="1"></stop></linearGradient></defs><defs><linearGradient id="grad2_0" x1="0%" y1="0%" x2="66.7%" y2="100%"><stop offset="20%" stop-color="#dbd8c1" stop-opacity="1"></stop><stop offset="80%" stop-color="#dbd8c1" stop-opacity="1"></stop></linearGradient></defs><g transform="translate(900, 0)"><path d="M0 513.8C-86 494.5 -171.9 475.1 -251 434.7C-330.1 394.3 -402.3 332.9 -445 256.9C-487.6 180.9 -500.7 90.5 -513.8 0L0 0Z" fill="#fdd4ce"></path></g><g transform="translate(0, 600)"><path d="M0 -513.8C87 -496.3 174 -478.8 253 -438.2C332 -397.6 402.8 -333.8 445 -256.9C487.1 -180 500.4 -90 513.8 0L0 0Z" fill="#fdd4ce"></path></g></svg>